<svg xmlns="http://www.w3.org/2000/svg" viewBox="0 0 120 120" fill="none">
  <defs>
    <linearGradient id="bg1" x1="0" y1="0" x2="120" y2="120" gradientUnits="userSpaceOnUse">
      <stop stop-color="#4F46E5"/>
      <stop offset="1" stop-color="#7C3AED"/>
    </linearGradient>
    <linearGradient id="skin1" x1="0" y1="0" x2="0" y2="1">
      <stop stop-color="#FCD34D"/>
      <stop offset="1" stop-color="#F59E0B"/>
    </linearGradient>
  </defs>
  <rect width="120" height="120" rx="60" fill="url(#bg1)"/>
  <!-- Body/Shoulders -->
  <path d="M24 116C24 95.0132 40.1177 78 60 78C79.8823 78 96 95.0132 96 116V120H24V116Z" fill="#E0E7FF"/>
  <path d="M42 90C42 83.3726 47.3726 78 54 78H66C72.6274 78 78 83.3726 78 90V120H42V90Z" fill="#C7D2FE"/>
  <!-- Neck -->
  <rect x="52" y="62" width="16" height="18" rx="8" fill="#FBBF24"/>
  <!-- Head -->
  <circle cx="60" cy="50" r="22" fill="url(#skin1)"/>
  <!-- Hair Back/Base -->
  <path d="M38 46C38 34 46 25 60 25C74 25 82 34 82 46C82 49 80 52 80 52C75 42 67 36 60 36C53 36 45 42 40 52C40 52 38 49 38 46Z" fill="#1E1B4B"/>
  <!-- Glasses -->
  <rect x="46" y="46" width="11" height="9" rx="3" stroke="#1E1B4B" stroke-width="2.5" fill="rgba(255,255,255,0.4)"/>
  <rect x="63" y="46" width="11" height="9" rx="3" stroke="#1E1B4B" stroke-width="2.5" fill="rgba(255,255,255,0.4)"/>
  <path d="M57 50H63" stroke="#1E1B4B" stroke-width="2.5" stroke-linecap="round"/>
  <!-- Eyes behind glasses -->
  <circle cx="51.5" cy="50.5" r="1.5" fill="#1E1B4B"/>
  <circle cx="68.5" cy="50.5" r="1.5" fill="#1E1B4B"/>
  <!-- Smile -->
  <path d="M54 60C56.5 62.5 63.5 62.5 66 60" stroke="#92400E" stroke-width="2" stroke-linecap="round"/>
</svg>
